<svg width="48" height="48" viewBox="0 0 48 48" fill="none" xmlns="http://www.w3.org/2000/svg">
<g clip-path="url(#clip0_502_1793)">
<path d="M0 24C0 10.7452 10.7452 0 24 0C37.2548 0 48 10.7452 48 24C48 37.2548 37.2548 48 24 48C10.7452 48 0 37.2548 0 24Z" fill="#1C1C1C"/>
<path d="M31.788 22.8314C31.6479 22.7653 31.5055 22.7017 31.3612 22.6409C31.11 18.0897 28.5808 15.4842 24.3339 15.4575C24.3147 15.4574 24.2955 15.4574 24.2763 15.4574C21.7361 15.4574 19.6235 16.5235 18.3232 18.4635L20.6588 20.0388C21.6302 18.5897 23.1547 18.2808 24.2774 18.2808C24.2904 18.2808 24.3034 18.2808 24.3162 18.2809C25.7146 18.2897 26.7698 18.6894 27.4527 19.469C27.9497 20.0366 28.2821 20.8208 28.4467 21.8106C27.2069 21.6035 25.8661 21.5398 24.4328 21.6206C20.395 21.8492 17.7992 24.1646 17.9736 27.382C18.0621 29.014 18.8889 30.418 20.3018 31.3352C21.4964 32.1105 23.035 32.4897 24.634 32.4038C26.7457 32.29 28.4023 31.4978 29.558 30.0493C30.4357 28.9493 30.9908 27.5238 31.236 25.7277C32.2423 26.3248 32.9882 27.1107 33.4001 28.0553C34.1005 29.6612 34.1413 32.3 31.9514 34.4513C30.0328 36.336 27.7265 37.1513 24.241 37.1765C20.3746 37.1483 17.4505 35.9292 15.5494 33.5528C13.7691 31.3277 12.849 28.1137 12.8147 24C12.849 19.8863 13.7691 16.6723 15.5494 14.4471C17.4505 12.0708 20.3745 10.8517 24.2409 10.8234C28.1353 10.8519 31.1103 12.0769 33.0843 14.4647C34.0522 15.6356 34.7819 17.1081 35.263 18.8251L38 18.107C37.4169 15.9937 36.4993 14.1726 35.2507 12.6623C32.7202 9.60111 29.0191 8.03252 24.2504 8H24.2314C19.4724 8.03241 15.8128 9.60697 13.3543 12.6799C11.1665 15.4144 10.038 19.2193 10.0001 23.9888L10 24L10.0001 24.0112C10.038 28.7807 11.1665 32.5857 13.3543 35.3202C15.8128 38.393 19.4724 39.9677 24.2314 40H24.2504C28.4815 39.9712 31.4638 38.882 33.9206 36.4685C37.135 33.311 37.0382 29.3532 35.9788 26.9235C35.2187 25.1812 33.7696 23.766 31.788 22.8314ZM24.4828 29.5845C22.7132 29.6825 20.8747 28.9015 20.784 27.2287C20.7168 25.9883 21.6818 24.6043 24.5914 24.4395C24.9247 24.4206 25.2516 24.4113 25.5729 24.4113C26.6297 24.4113 27.6185 24.5123 28.5174 24.7055C28.1821 28.8225 26.2155 29.491 24.4828 29.5845Z" fill="white"/>
</g>
<defs>
<clipPath id="clip0_502_1793">
<rect width="48" height="48" fill="white"/>
</clipPath>
</defs>
</svg>
