<svg width="48" height="48" viewBox="0 0 48 48" fill="none" xmlns="http://www.w3.org/2000/svg">
<rect width="48" height="48" rx="24" fill="#1C1C1C"/>
<path fill-rule="evenodd" clip-rule="evenodd" d="M21.0795 20.6001V19.3519C20.6463 19.2906 20.2095 19.2588 19.772 19.2567C14.4219 19.2567 10.0692 23.6101 10.0692 28.9603C10.0692 32.2423 11.7094 35.1475 14.2115 36.9043C12.5361 35.1125 11.6047 32.7508 11.6061 30.2979C11.6061 25.0239 15.8349 20.7232 21.0795 20.6001Z" fill="#00F2EA"/>
<path fill-rule="evenodd" clip-rule="evenodd" d="M21.3082 34.7289C23.6953 34.7289 25.6426 32.83 25.7313 30.4634L25.7394 9.33755H29.5988C29.5164 8.89645 29.4748 8.44872 29.4742 8H24.2032L24.1944 29.1266C24.1065 31.4924 22.1584 33.3906 19.7721 33.3906C19.0556 33.3909 18.35 33.2164 17.7163 32.882C18.1254 33.4528 18.6646 33.9181 19.2892 34.2392C19.9138 34.5604 20.6059 34.7282 21.3082 34.7289ZM36.8085 16.5083V15.3341C35.3901 15.3355 34.0022 14.9229 32.8149 14.1469C33.8558 15.3454 35.2574 16.1739 36.8092 16.5083" fill="#00F2EA"/>
<path fill-rule="evenodd" clip-rule="evenodd" d="M32.8144 14.1461C31.6508 12.8147 31.01 11.1064 31.0107 9.33823H29.5984C29.7813 10.3155 30.1606 11.2455 30.7134 12.0719C31.2662 12.8983 31.9809 13.604 32.8144 14.1461ZM19.7718 24.5283C18.597 24.5297 17.4707 24.997 16.64 25.8277C15.8093 26.6584 15.342 27.7847 15.3406 28.9595C15.3414 29.7676 15.563 30.5602 15.9816 31.2515C16.4001 31.9428 16.9996 32.5066 17.7152 32.882C17.1703 32.1305 16.8769 31.226 16.8768 30.2978C16.878 29.1229 17.3452 27.9964 18.1759 27.1655C19.0066 26.3347 20.133 25.8673 21.308 25.8659C21.7646 25.8659 22.2021 25.9414 22.6154 26.0711V20.6894C22.1823 20.6281 21.7454 20.5962 21.308 20.5941C21.231 20.5941 21.1555 20.5985 21.0793 20.6V24.7336C20.6564 24.599 20.2155 24.5298 19.7718 24.5283Z" fill="#FF004F"/>
<path fill-rule="evenodd" clip-rule="evenodd" d="M36.8086 16.5082V20.6051C34.0749 20.6051 31.5427 19.7308 29.4744 18.2467V28.9595C29.4744 34.3097 25.1225 38.6624 19.7723 38.6624C17.7047 38.6624 15.7875 38.0101 14.2117 36.9035C15.1177 37.8804 16.2156 38.6597 17.4368 39.1926C18.658 39.7254 19.9761 40.0003 21.3084 39.9999C26.6586 39.9999 31.0113 35.6473 31.0113 30.2978V19.5849C33.1479 21.1213 35.7138 21.9465 38.3455 21.9434V16.6709C37.8178 16.6709 37.3047 16.6137 36.8086 16.5075" fill="#FF004F"/>
<path fill-rule="evenodd" clip-rule="evenodd" d="M29.4744 28.9595V18.2467C31.6109 19.7832 34.1769 20.6083 36.8086 20.6051V16.5082C35.2569 16.1735 33.8556 15.3447 32.815 14.1461C31.9815 13.604 31.2667 12.8983 30.7139 12.0719C30.1612 11.2455 29.7819 10.3155 29.599 9.33823H25.7395L25.7315 30.4641C25.6428 32.8299 23.6955 34.7289 21.3084 34.7289C20.6061 34.7282 19.914 34.5603 19.2894 34.2391C18.6649 33.918 18.1257 33.4528 17.7165 32.882C17.0007 32.5067 16.401 31.943 15.9824 31.2517C15.5637 30.5603 15.342 29.7677 15.3412 28.9595C15.3425 27.7847 15.8098 26.6584 16.6405 25.8277C17.4711 24.997 18.5975 24.5297 19.7723 24.5283C20.2281 24.5283 20.6657 24.6031 21.0797 24.7336V20.6C15.8351 20.7231 11.6063 25.0238 11.6063 30.2978C11.6063 32.8483 12.5971 35.1701 14.2117 36.9041C15.8394 38.05 17.7817 38.6641 19.7723 38.6624C25.1225 38.6624 29.4744 34.3097 29.4744 28.9595Z" fill="white"/>
</svg>
